<?xml version="1.0" encoding="UTF-8" standalone="no"?>
<!DOCTYPE svg PUBLIC "-//W3C//DTD SVG 1.1//EN" "http://www.w3.org/Graphics/SVG/1.1/DTD/svg11.dtd">
<svg xmlns="http://www.w3.org/2000/svg" version="1.1" viewBox="0.00 0.00 126.00 36.00">
<g stroke-width="2.00" fill="none" stroke-linecap="butt">
<path stroke="#838e96" vector-effect="non-scaling-stroke" d="
  M 122.01 15.84
  Q 122.17 16.17 122.49 15.99
  A 0.54 0.52 69.3 0 0 122.74 15.42
  C 119.04 -0.14 98.94 -0.02 94.62 15.08
  A 0.61 0.61 0.0 0 0 95.21 15.86
  L 99.13 15.85
  Q 100.09 15.85 100.40 14.94
  Q 101.70 11.10 105.71 9.72
  C 110.47 8.09 115.18 10.41 117.32 14.96
  Q 117.59 15.53 118.21 15.64
  Q 120.00 15.95 121.57 15.62
  Q 121.87 15.56 122.01 15.84"
/>
<path stroke="#838e96" vector-effect="non-scaling-stroke" d="
  M 63.25 4.11
  C 57.25 3.22 52.56 5.81 52.18 11.95
  C 51.78 18.41 57.09 18.85 61.57 20.66
  C 68.99 23.65 60.37 31.56 54.45 25.09
  Q 53.89 24.48 53.41 25.15
  L 51.41 27.92
  Q 50.96 28.55 51.52 29.08
  Q 56.00 33.30 62.54 32.17
  Q 70.18 30.85 69.91 22.47
  C 69.73 16.89 63.79 15.78 59.52 14.22
  A 2.53 2.53 0.0 0 1 58.01 10.98
  C 59.22 7.64 63.05 8.01 65.79 9.86
  Q 66.61 10.41 66.96 9.50
  Q 67.49 8.16 68.51 7.19
  Q 69.01 6.72 68.48 6.29
  Q 66.40 4.58 63.25 4.11"
/>
<path stroke="#838e96" vector-effect="non-scaling-stroke" d="
  M 2.64 4.81
  L 13.33 31.38
  Q 13.43 31.63 13.70 31.64
  L 18.65 31.66
  Q 18.93 31.66 18.82 31.41
  Q 13.98 19.03 8.89 6.91
  C 8.63 6.29 8.61 5.67 8.62 5.01
  Q 8.63 4.55 8.17 4.55
  L 2.83 4.53
  Q 2.53 4.53 2.64 4.81"
/>
<path stroke="#838e96" vector-effect="non-scaling-stroke" d="
  M 18.84 19.20
  A 0.47 0.47 0.0 0 0 18.84 19.54
  L 21.16 25.52
  A 0.47 0.47 0.0 0 0 22.04 25.52
  L 29.99 5.20
  A 0.47 0.47 0.0 0 0 29.56 4.56
  L 25.07 4.52
  A 0.47 0.47 0.0 0 0 24.63 4.82
  L 18.84 19.20"
/>
<path stroke="#838e96" vector-effect="non-scaling-stroke" d="
  M 43.49 4.95
  A 0.43 0.43 0.0 0 0 43.06 4.52
  L 38.18 4.52
  A 0.43 0.43 0.0 0 0 37.75 4.95
  L 37.75 31.33
  A 0.43 0.43 0.0 0 0 38.18 31.76
  L 43.06 31.76
  A 0.43 0.43 0.0 0 0 43.49 31.33
  L 43.49 4.95"
/>
<path stroke="#838e96" vector-effect="non-scaling-stroke" d="
  M 84.99 5.01
  A 0.47 0.47 0.0 0 0 84.52 4.54
  L 79.88 4.54
  A 0.47 0.47 0.0 0 0 79.41 5.01
  L 79.41 31.31
  A 0.47 0.47 0.0 0 0 79.88 31.78
  L 84.52 31.78
  A 0.47 0.47 0.0 0 0 84.99 31.31
  L 84.99 5.01"
/>
<path stroke="#838e96" vector-effect="non-scaling-stroke" d="
  M 107.13 27.12
  C 103.90 26.35 101.18 24.14 100.31 21.06
  Q 100.09 20.28 99.28 20.28
  L 95.21 20.30
  Q 94.34 20.30 94.59 21.14
  Q 97.62 31.19 106.95 32.37
  C 114.80 33.35 121.39 28.25 122.78 20.53
  Q 122.83 20.25 122.54 20.25
  L 117.79 20.33
  Q 117.56 20.33 117.49 20.55
  C 116.01 24.69 111.75 28.23 107.13 27.12"
/>
</g>
<path fill="#ffffff" d="
  M 0.00 0.00
  L 126.00 0.00
  L 126.00 36.00
  L 0.00 36.00
  L 0.00 0.00
  Z
  M 122.01 15.84
  Q 122.17 16.17 122.49 15.99
  A 0.54 0.52 69.3 0 0 122.74 15.42
  C 119.04 -0.14 98.94 -0.02 94.62 15.08
  A 0.61 0.61 0.0 0 0 95.21 15.86
  L 99.13 15.85
  Q 100.09 15.85 100.40 14.94
  Q 101.70 11.10 105.71 9.72
  C 110.47 8.09 115.18 10.41 117.32 14.96
  Q 117.59 15.53 118.21 15.64
  Q 120.00 15.95 121.57 15.62
  Q 121.87 15.56 122.01 15.84
  Z
  M 63.25 4.11
  C 57.25 3.22 52.56 5.81 52.18 11.95
  C 51.78 18.41 57.09 18.85 61.57 20.66
  C 68.99 23.65 60.37 31.56 54.45 25.09
  Q 53.89 24.48 53.41 25.15
  L 51.41 27.92
  Q 50.96 28.55 51.52 29.08
  Q 56.00 33.30 62.54 32.17
  Q 70.18 30.85 69.91 22.47
  C 69.73 16.89 63.79 15.78 59.52 14.22
  A 2.53 2.53 0.0 0 1 58.01 10.98
  C 59.22 7.64 63.05 8.01 65.79 9.86
  Q 66.61 10.41 66.96 9.50
  Q 67.49 8.16 68.51 7.19
  Q 69.01 6.72 68.48 6.29
  Q 66.40 4.58 63.25 4.11
  Z
  M 2.64 4.81
  L 13.33 31.38
  Q 13.43 31.63 13.70 31.64
  L 18.65 31.66
  Q 18.93 31.66 18.82 31.41
  Q 13.98 19.03 8.89 6.91
  C 8.63 6.29 8.61 5.67 8.62 5.01
  Q 8.63 4.55 8.17 4.55
  L 2.83 4.53
  Q 2.53 4.53 2.64 4.81
  Z
  M 18.84 19.20
  A 0.47 0.47 0.0 0 0 18.84 19.54
  L 21.16 25.52
  A 0.47 0.47 0.0 0 0 22.04 25.52
  L 29.99 5.20
  A 0.47 0.47 0.0 0 0 29.56 4.56
  L 25.07 4.52
  A 0.47 0.47 0.0 0 0 24.63 4.82
  L 18.84 19.20
  Z
  M 43.49 4.95
  A 0.43 0.43 0.0 0 0 43.06 4.52
  L 38.18 4.52
  A 0.43 0.43 0.0 0 0 37.75 4.95
  L 37.75 31.33
  A 0.43 0.43 0.0 0 0 38.18 31.76
  L 43.06 31.76
  A 0.43 0.43 0.0 0 0 43.49 31.33
  L 43.49 4.95
  Z
  M 84.99 5.01
  A 0.47 0.47 0.0 0 0 84.52 4.54
  L 79.88 4.54
  A 0.47 0.47 0.0 0 0 79.41 5.01
  L 79.41 31.31
  A 0.47 0.47 0.0 0 0 79.88 31.78
  L 84.52 31.78
  A 0.47 0.47 0.0 0 0 84.99 31.31
  L 84.99 5.01
  Z
  M 107.13 27.12
  C 103.90 26.35 101.18 24.14 100.31 21.06
  Q 100.09 20.28 99.28 20.28
  L 95.21 20.30
  Q 94.34 20.30 94.59 21.14
  Q 97.62 31.19 106.95 32.37
  C 114.80 33.35 121.39 28.25 122.78 20.53
  Q 122.83 20.25 122.54 20.25
  L 117.79 20.33
  Q 117.56 20.33 117.49 20.55
  C 116.01 24.69 111.75 28.23 107.13 27.12
  Z"
/>
<path fill="#061c2d" d="
  M 121.57 15.62
  Q 120.00 15.95 118.21 15.64
  Q 117.59 15.53 117.32 14.96
  C 115.18 10.41 110.47 8.09 105.71 9.72
  Q 101.70 11.10 100.40 14.94
  Q 100.09 15.85 99.13 15.85
  L 95.21 15.86
  A 0.61 0.61 0.0 0 1 94.62 15.08
  C 98.94 -0.02 119.04 -0.14 122.74 15.42
  A 0.54 0.52 69.3 0 1 122.49 15.99
  Q 122.17 16.17 122.01 15.84
  Q 121.87 15.56 121.57 15.62
  Z"
/>
<path fill="#061c2d" d="
  M 63.25 4.11
  Q 66.40 4.58 68.48 6.29
  Q 69.01 6.72 68.51 7.19
  Q 67.49 8.16 66.96 9.50
  Q 66.61 10.41 65.79 9.86
  C 63.05 8.01 59.22 7.64 58.01 10.98
  A 2.53 2.53 0.0 0 0 59.52 14.22
  C 63.79 15.78 69.73 16.89 69.91 22.47
  Q 70.18 30.85 62.54 32.17
  Q 56.00 33.30 51.52 29.08
  Q 50.96 28.55 51.41 27.92
  L 53.41 25.15
  Q 53.89 24.48 54.45 25.09
  C 60.37 31.56 68.99 23.65 61.57 20.66
  C 57.09 18.85 51.78 18.41 52.18 11.95
  C 52.56 5.81 57.25 3.22 63.25 4.11
  Z"
/>
<path fill="#061c2d" d="
  M 13.33 31.38
  L 2.64 4.81
  Q 2.53 4.53 2.83 4.53
  L 8.17 4.55
  Q 8.63 4.55 8.62 5.01
  C 8.61 5.67 8.63 6.29 8.89 6.91
  Q 13.98 19.03 18.82 31.41
  Q 18.93 31.66 18.65 31.66
  L 13.70 31.64
  Q 13.43 31.63 13.33 31.38
  Z"
/>
<path fill="#061c2d" d="
  M 18.84 19.20
  L 24.63 4.82
  A 0.47 0.47 0.0 0 1 25.07 4.52
  L 29.56 4.56
  A 0.47 0.47 0.0 0 1 29.99 5.20
  L 22.04 25.52
  A 0.47 0.47 0.0 0 1 21.16 25.52
  L 18.84 19.54
  A 0.47 0.47 0.0 0 1 18.84 19.20
  Z"
/>
<rect fill="#061c2d" x="37.75" y="4.52" width="5.74" height="27.24" rx="0.43"/>
<rect fill="#061c2d" x="79.41" y="4.54" width="5.58" height="27.24" rx="0.47"/>
<path fill="#061c2d" d="
  M 100.31 21.06
  C 101.18 24.14 103.90 26.35 107.13 27.12
  C 111.75 28.23 116.01 24.69 117.49 20.55
  Q 117.56 20.33 117.79 20.33
  L 122.54 20.25
  Q 122.83 20.25 122.78 20.53
  C 121.39 28.25 114.80 33.35 106.95 32.37
  Q 97.62 31.19 94.59 21.14
  Q 94.34 20.30 95.21 20.30
  L 99.28 20.28
  Q 100.09 20.28 100.31 21.06
  Z"
/>
</svg>
